999
dxfrw 0.5.8
0
SECTION
2
HEADER
9
$ACADVER
1
AC1021
9
$HANDSEED
5
20000
9
$DWGCODEPAGE
3
ANSI_1252
9
$INSBASE
10
0
20
0
30
0
9
$EXTMIN
10
91.9431749136
20
313.314631701
30
0
9
$EXTMAX
10
150.014224
20
454.989628
30
0
9
$LIMMIN
10
0
20
0
9
$LIMMAX
10
420
20
297
9
$ORTHOMODE
70
0
9
$LTSCALE
40
1
9
$TEXTSTYLE
7
STANDARD
9
$DIMASZ
40
2.5
9
$DIMSCALE
40
1
9
$DIMEXO
40
0.625
9
$DIMEXE
40
1.25
9
$DIMTXT
40
2.5
9
$DIMTSZ
40
0
9
$DIMAUNIT
70
0
9
$DIMADEC
70
0
9
$DIMLUNIT
70
2
9
$DIMSTYLE
2
Standard
9
$DIMGAP
40
0.625
9
$DIMTIH
70
0
9
$LUNITS
70
2
9
$LUPREC
70
4
9
$AUNITS
70
0
9
$AUPREC
70
2
9
$SPLINESEGS
70
8
9
$GRIDMODE
70
0
9
$SNAPSTYLE
70
0
9
$PINSBASE
10
0
20
0
30
0
9
$PLIMMIN
10
0
20
0
9
$PLIMMAX
10
210
20
297
9
$INSUNITS
70
4
9
$PSVPSCALE
40
1
0
ENDSEC
0
SECTION
2
CLASSES
0
ENDSEC
0
SECTION
2
TABLES
0
TABLE
2
VPORT
5
8
330
0
100
AcDbSymbolTable
70
1
0
VPORT
5
31
330
2
100
AcDbSymbolTableRecord
100
AcDbViewportTableRecord
2
*ACTIVE
70
0
10
0
20
0
11
1
21
1
12
10035.3283585
22
4641.24800265
13
0
23
0
14
10
24
10
15
10
25
10
16
0
26
0
36
1
17
0
27
0
37
0
40
9691.80291577
41
2.36953242836
42
50
43
0
44
0
50
0
51
0
71
0
72
100
73
1
74
3
75
0
76
0
77
0
78
0
281
0
65
1
110
0
120
0
130
0
111
1
121
0
131
0
112
0
122
1
132
0
79
0
146
0
348
10020
60
7
61
5
292
1
282
1
141
0
142
0
63
250
421
3358443
0
ENDTAB
0
TABLE
2
LTYPE
5
5
330
0
100
AcDbSymbolTable
70
4
0
LTYPE
5
14
330
5
100
AcDbSymbolTableRecord
100
AcDbLinetypeTableRecord
2
ByBlock
70
0
3

72
65
73
0
40
0
0
LTYPE
5
15
330
5
100
AcDbSymbolTableRecord
100
AcDbLinetypeTableRecord
2
ByLayer
70
0
3

72
65
73
0
40
0
0
LTYPE
5
16
330
5
100
AcDbSymbolTableRecord
100
AcDbLinetypeTableRecord
2
Continuous
70
0
3
Solid line
72
65
73
0
40
0
0
LTYPE
5
32
330
5
100
AcDbSymbolTableRecord
100
AcDbLinetypeTableRecord
2
DOT
70
0
3
Dot . . . . . . . . . . . . . . . . . . . . . .
72
65
73
2
40
6.35
49
0
74
0
49
-6.35
74
0
0
LTYPE
5
33
330
5
100
AcDbSymbolTableRecord
100
AcDbLinetypeTableRecord
2
DOT2
70
0
3
Dot (.5x) .....................................
72
65
73
2
40
3.175
49
0
74
0
49
-3.175
74
0
0
LTYPE
5
34
330
5
100
AcDbSymbolTableRecord
100
AcDbLinetypeTableRecord
2
DOTX2
70
0
3
Dot (2x) .  .  .  .  .  .  .  .  .  .  .  .  .
72
65
73
2
40
12.7
49
0
74
0
49
-12.7
74
0
0
LTYPE
5
35
330
5
100
AcDbSymbolTableRecord
100
AcDbLinetypeTableRecord
2
DASHED
70
0
3
Dot . . . . . . . . . . . . . . . . . . . . . .
72
65
73
2
40
19.05
49
12.7
74
0
49
-6.35
74
0
0
LTYPE
5
36
330
5
100
AcDbSymbolTableRecord
100
AcDbLinetypeTableRecord
2
DASHED2
70
0
3
Dashed (.5x) _ _ _ _ _ _ _ _ _ _ _ _ _ _ _ _ _
72
65
73
2
40
9.525
49
6.35
74
0
49
-3.175
74
0
0
LTYPE
5
37
330
5
100
AcDbSymbolTableRecord
100
AcDbLinetypeTableRecord
2
DASHEDX2
70
0
3
Dashed (2x) ____  ____  ____  ____  ____  ___
72
65
73
2
40
38.1
49
25.4
74
0
49
-12.7
74
0
0
LTYPE
5
38
330
5
100
AcDbSymbolTableRecord
100
AcDbLinetypeTableRecord
2
DASHDOT
70
0
3
Dash dot __ . __ . __ . __ . __ . __ . __ . __
72
65
73
4
40
25.4
49
12.7
74
0
49
-6.35
74
0
49
0
74
0
49
-6.35
74
0
0
LTYPE
5
39
330
5
100
AcDbSymbolTableRecord
100
AcDbLinetypeTableRecord
2
DASHDOT2
70
0
3
Dash dot (.5x) _._._._._._._._._._._._._._._.
72
65
73
4
40
12.7
49
6.35
74
0
49
-3.175
74
0
49
0
74
0
49
-3.175
74
0
0
LTYPE
5
3A
330
5
100
AcDbSymbolTableRecord
100
AcDbLinetypeTableRecord
2
DASHDOTX2
70
0
3
Dash dot (2x) ____  .  ____  .  ____  .  ___
72
65
73
4
40
50.8
49
25.4
74
0
49
-12.7
74
0
49
0
74
0
49
-12.7
74
0
0
LTYPE
5
3B
330
5
100
AcDbSymbolTableRecord
100
AcDbLinetypeTableRecord
2
DIVIDE
70
0
3
Divide ____ . . ____ . . ____ . . ____ . . ____
72
65
73
6
40
31.75
49
12.7
74
0
49
-6.35
74
0
49
0
74
0
49
-6.35
74
0
49
0
74
0
49
-6.35
74
0
0
LTYPE
5
3C
330
5
100
AcDbSymbolTableRecord
100
AcDbLinetypeTableRecord
2
DIVIDE2
70
0
3
Divide (.5x) __..__..__..__..__..__..__..__.._
72
65
73
6
40
15.875
49
6.35
74
0
49
-3.175
74
0
49
0
74
0
49
-3.175
74
0
49
0
74
0
49
-3.175
74
0
0
LTYPE
5
3D
330
5
100
AcDbSymbolTableRecord
100
AcDbLinetypeTableRecord
2
DIVIDEX2
70
0
3
Divide (2x) ________  .  .  ________  .  .  _
72
65
73
6
40
63.5
49
25.4
74
0
49
-12.7
74
0
49
0
74
0
49
-12.7
74
0
49
0
74
0
49
-12.7
74
0
0
LTYPE
5
3E
330
5
100
AcDbSymbolTableRecord
100
AcDbLinetypeTableRecord
2
BORDER
70
0
3
Border __ __ . __ __ . __ __ . __ __ . __ __ .
72
65
73
6
40
44.45
49
12.7
74
0
49
-6.35
74
0
49
12.7
74
0
49
-6.35
74
0
49
0
74
0
49
-6.35
74
0
0
LTYPE
5
3F
330
5
100
AcDbSymbolTableRecord
100
AcDbLinetypeTableRecord
2
BORDER2
70
0
3
Border (.5x) __.__.__.__.__.__.__.__.__.__.__.
72
65
73
6
40
22.225
49
6.35
74
0
49
-3.175
74
0
49
6.35
74
0
49
-3.175
74
0
49
0
74
0
49
-3.175
74
0
0
LTYPE
5
40
330
5
100
AcDbSymbolTableRecord
100
AcDbLinetypeTableRecord
2
BORDERX2
70
0
3
Border (2x) ____  ____  .  ____  ____  .  ___
72
65
73
6
40
88.9
49
25.4
74
0
49
-12.7
74
0
49
25.4
74
0
49
-12.7
74
0
49
0
74
0
49
-12.7
74
0
0
LTYPE
5
41
330
5
100
AcDbSymbolTableRecord
100
AcDbLinetypeTableRecord
2
CENTER
70
0
3
Center ____ _ ____ _ ____ _ ____ _ ____ _ ____
72
65
73
4
40
50.8
49
31.75
74
0
49
-6.35
74
0
49
6.35
74
0
49
-6.35
74
0
0
LTYPE
5
42
330
5
100
AcDbSymbolTableRecord
100
AcDbLinetypeTableRecord
2
CENTER2
70
0
3
Center (.5x) ___ _ ___ _ ___ _ ___ _ ___ _ ___
72
65
73
4
40
28.575
49
19.05
74
0
49
-3.175
74
0
49
3.175
74
0
49
-3.175
74
0
0
LTYPE
5
43
330
5
100
AcDbSymbolTableRecord
100
AcDbLinetypeTableRecord
2
CENTERX2
70
0
3
Center (2x) ________  __  ________  __  _____
72
65
73
4
40
101.6
49
63.5
74
0
49
-12.7
74
0
49
12.7
74
0
49
-12.7
74
0
0
ENDTAB
0
TABLE
2
LAYER
5
2
330
0
100
AcDbSymbolTable
70
1
0
LAYER
5
10
330
2
100
AcDbSymbolTableRecord
100
AcDbLayerTableRecord
2
0
70
0
62
7
6
CONTINUOUS
370
-3
390
F
0
LAYER
5
44
330
2
100
AcDbSymbolTableRecord
100
AcDbLayerTableRecord
2
Layer_1
70
0
62
7
6
CONTINUOUS
290
0
370
-3
390
F
0
ENDTAB
0
TABLE
2
STYLE
5
3
330
0
100
AcDbSymbolTable
70
3
0
STYLE
5
45
330
2
100
AcDbSymbolTableRecord
100
AcDbTextStyleTableRecord
2
Standard
70
0
40
0
41
1
50
0
71
0
42
1
3
txt
4

0
ENDTAB
0
TABLE
2
VIEW
5
6
330
0
100
AcDbSymbolTable
70
0
0
ENDTAB
0
TABLE
2
UCS
5
7
330
0
100
AcDbSymbolTable
70
0
0
ENDTAB
0
TABLE
2
APPID
5
9
330
0
100
AcDbSymbolTable
70
1
0
APPID
5
12
330
9
100
AcDbSymbolTableRecord
100
AcDbRegAppTableRecord
2
ACAD
70
0
0
ENDTAB
0
TABLE
2
DIMSTYLE
5
A
330
0
100
AcDbSymbolTable
70
1
100
AcDbDimStyleTable
71
1
0
DIMSTYLE
105
46
330
A
100
AcDbSymbolTableRecord
100
AcDbDimStyleTableRecord
2
Standard
70
0
40
1
41
2.5
42
0.625
43
0.38
44
1.25
45
0
46
0
47
0
48
0
140
2.5
141
0.09
142
0
143
25.4
144
1
145
0
146
1
147
0.625
148
0
71
0
72
0
73
0
74
1
75
0
76
0
77
0
78
0
79
0
170
0
171
2
172
0
173
0
174
0
175
0
176
0
177
0
178
0
179
0
271
4
272
4
273
2
274
2
275
0
276
0
277
2
278
46
279
0
280
0
281
0
282
0
283
1
284
0
285
0
286
0
288
0
289
3
340
Standard
341

371
-2
372
-2
0
ENDTAB
0
TABLE
2
BLOCK_RECORD
5
1
330
0
100
AcDbSymbolTable
70
2
0
BLOCK_RECORD
5
1F
330
1
100
AcDbSymbolTableRecord
100
AcDbBlockTableRecord
2
*Model_Space
70
0
280
1
281
0
0
BLOCK_RECORD
5
1E
330
1
100
AcDbSymbolTableRecord
100
AcDbBlockTableRecord
2
*Paper_Space
70
0
280
1
281
0
0
ENDTAB
0
ENDSEC
0
SECTION
2
BLOCKS
0
BLOCK
5
20
330
1F
100
AcDbEntity
8
0
100
AcDbBlockBegin
2
*Model_Space
70
0
10
0
20
0
30
0
3
*Model_Space
1

0
ENDBLK
5
21
330
1F
100
AcDbEntity
8
0
100
AcDbBlockEnd
0
BLOCK
5
1C
330
1B
100
AcDbEntity
8
0
100
AcDbBlockBegin
2
*Paper_Space
70
0
10
0
20
0
30
0
3
*Paper_Space
1

0
ENDBLK
5
1D
330
1F
100
AcDbEntity
8
0
100
AcDbBlockEnd
0
ENDSEC
0
SECTION
2
ENTITIES
0
LWPOLYLINE
5
47
100
AcDbEntity
8
Layer_1
6
ByLayer
62
7
370
-1
100
AcDbPolyline
90
14
70
0
43
0
10
94.658328
20
431.97474
10
94.716408
20
454.835556
10
97.477248
20
454.906276
10
103.210232
20
436.992612
10
103.210232
20
454.976988
10
106.116488
20
454.976988
10
112.692584
20
454.989628
10
112.727464
20
453.165636
10
105.28684
20
453.234596
10
105.171872
20
432.0707
10
103.007136
20
432.0707
10
96.562024
20
451.414204
10
96.774152
20
431.929276
10
94.658328
20
431.97474
0
LWPOLYLINE
5
48
100
AcDbEntity
8
Layer_1
6
ByLayer
62
7
370
-1
100
AcDbPolyline
90
5
70
0
43
0
10
108.54864
20
447.673124
10
108.54864
20
450.168652
10
111.361136
20
450.168652
10
111.361136
20
447.673124
10
108.54864
20
447.673124
0
LWPOLYLINE
5
49
100
AcDbEntity
8
Layer_1
6
ByLayer
62
7
370
-1
100
AcDbPolyline
90
5
70
0
43
0
10
108.58904
20
432.007652
10
108.54864
20
445.298148
10
111.361136
20
445.298148
10
111.267656
20
431.914164
10
108.58904
20
432.007652
0
SPLINE
5
4A
100
AcDbEntity
8
Layer_1
6
ByLayer
62
7
370
-1
100
AcDbSpline
210
0
220
0
230
1
70
8
71
3
72
8
73
4
74
0
42
1e-007
43
1e-007
40
0
40
0
40
0
40
0
40
1
40
1
40
1
40
1
10
116.90032
20
434.773108
30
0
10
116.89016
20
433.797132
30
0
10
116.89872
20
434.65642
30
0
10
117.367864
20
435.906428
30
0
0
LWPOLYLINE
5
4B
100
AcDbEntity
8
Layer_1
6
ByLayer
62
7
370
-1
100
AcDbPolyline
90
4
70
0
43
0
10
114.998224
20
431.929308
10
114.962064
20
454.906268
10
117.110232
20
454.918908
10
116.90032
20
434.773108
0
SPLINE
5
4C
100
AcDbEntity
8
Layer_1
6
ByLayer
62
7
370
-1
100
AcDbSpline
210
0
220
0
230
1
70
8
71
3
72
8
73
4
74
0
42
1e-007
43
1e-007
40
0
40
0
40
0
40
0
40
1
40
1
40
1
40
1
10
133.312104
20
454.822036
30
0
10
133.358904
20
451.985644
30
0
10
133.428616
20
453.687868
30
0
10
133.359544
20
452.940844
30
0
0
LWPOLYLINE
5
4D
100
AcDbEntity
8
Layer_1
6
ByLayer
62
7
370
-1
100
AcDbPolyline
90
3
70
0
43
0
10
117.367864
20
435.906428
10
124.477592
20
454.835556
10
133.312104
20
454.822036
0
SPLINE
5
4E
100
AcDbEntity
8
Layer_1
6
ByLayer
62
7
370
-1
100
AcDbSpline
210
0
220
0
230
1
70
8
71
3
72
8
73
4
74
0
42
1e-007
43
1e-007
40
0
40
0
40
0
40
0
40
1
40
1
40
1
40
1
10
133.68692
20
435.383716
30
0
10
132.968992
20
433.115596
30
0
10
133.780016
20
431.614996
30
0
10
129.342144
20
431.578188
30
0
0
SPLINE
5
4F
100
AcDbEntity
8
Layer_1
6
ByLayer
62
7
370
-1
100
AcDbSpline
210
0
220
0
230
1
70
8
71
3
72
8
73
4
74
0
42
1e-007
43
1e-007
40
0
40
0
40
0
40
0
40
1
40
1
40
1
40
1
10
129.342144
20
431.578188
30
0
10
117.282328
20
430.796804
30
0
10
121.500184
20
438.978212
30
0
10
126.637272
20
446.42846
30
0
0
SPLINE
5
50
100
AcDbEntity
8
Layer_1
6
ByLayer
62
7
370
-1
100
AcDbSpline
210
0
220
0
230
1
70
8
71
3
72
8
73
4
74
0
42
1e-007
43
1e-007
40
0
40
0
40
0
40
0
40
1
40
1
40
1
40
1
10
126.637272
20
446.42846
30
0
10
130.564432
20
446.638396
30
0
10
131.54312
20
446.42606
30
0
10
134.202336
20
446.48494
30
0
0
SPLINE
5
51
100
AcDbEntity
8
Layer_1
6
ByLayer
62
7
370
-1
100
AcDbSpline
210
0
220
0
230
1
70
8
71
3
72
8
73
4
74
0
42
1e-007
43
1e-007
40
0
40
0
40
0
40
0
40
1
40
1
40
1
40
1
10
134.202336
20
446.48494
30
0
10
135.886544
20
443.965196
30
0
10
134.895856
20
440.2951
30
0
10
134.633544
20
439.871444
30
0
0
LWPOLYLINE
5
52
100
AcDbEntity
8
Layer_1
6
ByLayer
62
7
370
-1
100
AcDbPolyline
90
4
70
0
43
0
10
133.359544
20
452.940844
10
125.991328
20
452.933644
10
117.858248
20
431.840652
10
114.998224
20
431.929308
0
SPLINE
5
53
100
AcDbEntity
8
Layer_1
6
ByLayer
62
7
370
-1
100
AcDbSpline
210
0
220
0
230
1
70
8
71
3
72
8
73
4
74
0
42
1e-007
43
1e-007
40
0
40
0
40
0
40
0
40
1
40
1
40
1
40
1
10
124.62796
20
439.773076
30
0
10
119.36016
20
431.622756
30
0
10
127.936944
20
432.72618
30
0
10
130.999984
20
432.901996
30
0
0
SPLINE
5
54
100
AcDbEntity
8
Layer_1
6
ByLayer
62
7
370
-1
100
AcDbSpline
210
0
220
0
230
1
70
8
71
3
72
8
73
4
74
0
42
1e-007
43
1e-007
40
0
40
0
40
0
40
0
40
1
40
1
40
1
40
1
10
130.999984
20
432.901996
30
0
10
131.917848
20
433.003332
30
0
10
131.906408
20
435.086732
30
0
10
132.302048
20
435.582284
30
0
0
LWPOLYLINE
5
55
100
AcDbEntity
8
Layer_1
6
ByLayer
62
7
370
-1
100
AcDbPolyline
90
2
70
0
43
0
10
134.633544
20
439.871444
10
124.62796
20
439.773076
0
LWPOLYLINE
5
56
100
AcDbEntity
8
Layer_1
6
ByLayer
62
7
370
-1
100
AcDbPolyline
90
2
70
0
43
0
10
132.302048
20
435.582284
10
133.68692
20
435.383716
0
SPLINE
5
57
100
AcDbEntity
8
Layer_1
6
ByLayer
62
7
370
-1
100
AcDbSpline
210
0
220
0
230
1
70
8
71
3
72
8
73
4
74
0
42
1e-007
43
1e-007
40
0
40
0
40
0
40
0
40
1
40
1
40
1
40
1
10
133.488456
20
441.12574
30
0
10
133.84248
20
442.471564
30
0
10
134.219952
20
444.951628
30
0
10
132.604136
20
445.014548
30
0
0
LWPOLYLINE
5
58
100
AcDbEntity
8
Layer_1
6
ByLayer
62
7
370
-1
100
AcDbPolyline
90
2
70
0
43
0
10
125.087672
20
441.06286
10
133.488456
20
441.12574
0
LWPOLYLINE
5
59
100
AcDbEntity
8
Layer_1
6
ByLayer
62
7
370
-1
100
AcDbPolyline
90
13
70
0
43
0
10
136.264224
20
431.646468
10
136.264224
20
454.552716
10
139.076728
20
454.552716
10
139.076728
20
441.490212
10
145.732976
20
448.240212
10
149.3736
20
448.240212
10
143.029848
20
442.083964
10
150.014224
20
431.646468
10
146.545472
20
431.646468
10
141.061104
20
440.130844
10
139.076728
20
438.224588
10
139.076728
20
431.646468
10
136.264224
20
431.646468
0
LWPOLYLINE
5
5A
100
AcDbEntity
8
Layer_1
6
ByLayer
62
7
370
-1
100
AcDbPolyline
90
2
70
0
43
0
10
134.759352
20
439.871492
10
134.759352
20
439.871492
0
SPLINE
5
5B
100
AcDbEntity
8
Layer_1
6
ByLayer
62
7
370
-1
100
AcDbSpline
210
0
220
0
230
1
70
8
71
3
72
8
73
4
74
0
42
1e-007
43
1e-007
40
0
40
0
40
0
40
0
40
1
40
1
40
1
40
1
10
127.576048
20
444.896564
30
0
10
126.724048
20
443.808284
30
0
10
125.527392
20
442.259156
30
0
10
125.087672
20
441.06286
30
0
0
ENDSEC
0
SECTION
2
OBJECTS
0
DICTIONARY
5
C
330
0
100
AcDbDictionary
281
1
3
ACAD_GROUP
350
D
0
DICTIONARY
5
D
330
C
100
AcDbDictionary
281
1
0
ENDSEC
0
EOF
