<?xml version="1.0" encoding="UTF-8" standalone="no"?>
<!-- Created with Inkscape (http://www.inkscape.org/) -->

<svg
   xmlns:dc="http://purl.org/dc/elements/1.1/"
   xmlns:cc="http://creativecommons.org/ns#"
   xmlns:rdf="http://www.w3.org/1999/02/22-rdf-syntax-ns#"
   xmlns:svg="http://www.w3.org/2000/svg"
   xmlns="http://www.w3.org/2000/svg"
   xmlns:sodipodi="http://sodipodi.sourceforge.net/DTD/sodipodi-0.dtd"
   xmlns:inkscape="http://www.inkscape.org/namespaces/inkscape"
   width="744.09448819"
   height="1052.3622047"
   id="svg2"
   version="1.1"
   inkscape:version="0.48.4 r9939"
   sodipodi:docname="NiVekLogo.dxf">
  <defs
     id="defs4" />
  <sodipodi:namedview
     id="base"
     pagecolor="#ffffff"
     bordercolor="#666666"
     borderopacity="1.0"
     inkscape:pageopacity="0.0"
     inkscape:pageshadow="2"
     inkscape:zoom="25.435412"
     inkscape:cx="151.12116"
     inkscape:cy="553.54817"
     inkscape:document-units="px"
     inkscape:current-layer="layer1"
     showgrid="false"
     inkscape:window-width="1920"
     inkscape:window-height="1017"
     inkscape:window-x="3832"
     inkscape:window-y="1072"
     inkscape:window-maximized="1" />
  <metadata
     id="metadata7">
    <rdf:RDF>
      <cc:Work
         rdf:about="">
        <dc:format>image/svg+xml</dc:format>
        <dc:type
           rdf:resource="http://purl.org/dc/dcmitype/StillImage" />
        <dc:title></dc:title>
      </cc:Work>
    </rdf:RDF>
  </metadata>
  <g
     inkscape:label="Layer 1"
     inkscape:groupmode="layer"
     id="layer1">
    <g
       style="font-size:40px;font-style:normal;font-weight:normal;line-height:125%;letter-spacing:0px;word-spacing:0px;fill:#000000;fill-opacity:1;stroke:none;font-family:Sans"
       id="text2985">
      <path
         d="m 118.32291,512.39378 0.0726,-28.57602 3.45105,-0.0884 7.16623,22.39208 0,-22.48047 3.63282,0 8.22012,-0.0158 0.0436,2.27999 -9.30078,-0.0862 -0.14371,26.45487 -2.70592,0 -8.05639,-24.17938 0.26516,24.35616 z"
         id="path2990"
         inkscape:connector-curvature="0"
         sodipodi:nodetypes="cccccccccccccc" />
      <path
         d="m 135.6858,492.7708 0,-3.11941 3.51562,0 0,3.11941 z m 0.0505,19.58184 -0.0505,-16.61312 3.51562,0 -0.11685,16.72998 z"
         id="path2992"
         inkscape:connector-curvature="0"
         sodipodi:nodetypes="cccccccccc" />
      <path
         d="m 143.74778,512.45057 -0.0452,-28.7212 2.68521,-0.0158 -0.26239,25.18225 c -0.0127,1.21997 -0.002,0.14586 0.58443,-1.41665 l 8.88716,-23.66141 11.04314,0.0169 c 0.0585,3.54549 0.14564,1.41771 0.0593,2.35149 l -9.21027,0.009 -10.16635,26.36624 z"
         id="path2994"
         inkscape:connector-curvature="0"
         sodipodi:nodetypes="cccsccccccc" />
      <path
         d="m 167.10865,508.13256 c -0.89741,2.83515 0.11637,4.7109 -5.43097,4.75691 -15.07477,0.97673 -9.80245,-9.25003 -3.38109,-18.56284 4.90895,-0.26242 6.13231,0.003 9.45633,-0.0706 2.10526,3.14968 0.8669,7.7373 0.53901,8.26687 l -12.50698,0.12296 c -6.58475,10.1879 4.13623,8.80862 7.96503,8.58885 1.14733,-0.12667 1.13303,-2.73092 1.62758,-3.35036 z m -7.63859,-11.89106 c -1.065,1.36035 -2.56082,3.29676 -3.11047,4.79213 l 10.50098,-0.0786 c 0.44253,-1.68228 0.91437,-4.78236 -1.1054,-4.86101"
         id="path2996"
         inkscape:connector-curvature="0"
         sodipodi:nodetypes="ccccccccccccc" />
      <path
         d="m 170.33028,512.80412 0,-28.63281 3.51563,0 0,16.32813 8.32031,-8.4375 4.55078,0 -7.92969,7.69531 8.73047,13.04687 -4.33594,0 -6.85546,-10.60547 -2.48047,2.38282 0,8.22265 z"
         id="path2998"
         inkscape:connector-curvature="0" />
      <path
         sodipodi:nodetypes="cc"
         inkscape:connector-curvature="0"
         id="path3000"
         d="m 168.44919,502.52284 c -112.29946,366.55956 -56.14973,183.27978 0,0 z" />
    </g>
  </g>
</svg>
